# xmcd
#
# Track frame offsets:
#	150
#	40630
#	108970
#	169285
#	230207
#	251620
#	292120
#	315718
#
# Disc length: 4578 seconds
#
# Revision: 0
# Processed by: cddbd v1.5.2PL0 Copyright (c) Steve Scherf et al.
# Submitted via: audiograbber 1.83.01
#
DISCID=7011e008
DTITLE=Grateful Dead - 94-09-17 Shoreline Amphitheatre, Mountain View CA
DYEAR=1900
DGENRE=
TTITLE0=Corrina
TTITLE1=Terrapin Station
TTITLE2=Drums
TTITLE3=Space
TTITLE4=I Need A Miracle
TTITLE5=Stella Blue
TTITLE6=One More Saturday Night
TTITLE7=It's All Over Now, Baby Blue
EXTD=
EXTT0=
EXTT1=
EXTT2=
EXTT3=
EXTT4=
EXTT5=
EXTT6=
EXTT7=
PLAYORDER=
